<svg xmlns="http://www.w3.org/2000/svg" xmlns:xlink="http://www.w3.org/1999/xlink" id="Layer_1" x="0" y="0" enable-background="new 0 0 20 20" version="1.1" viewBox="0 0 20 20" xml:space="preserve"><path fill="#231F20" d="M17.3535156,3.3535156l-0.7070312-0.7070312l-2.4228516,2.4228516	C13.0863647,4.0936279,11.6123657,3.5,10,3.5c-3.5839844,0-6.5,2.9160156-6.5,6.5	c0,1.6123657,0.5936279,3.0863647,1.5693359,4.2236328l-2.4228516,2.4228516l0.7070312,0.7070312l2.4228516-2.4228516	C6.9136353,15.9063721,8.3876343,16.5,10,16.5c3.5839844,0,6.5-2.9160156,6.5-6.5	c0-1.6123657-0.5936279-3.0863647-1.5693359-4.2236328L17.3535156,3.3535156z M15.5,10c0,3.0322266-2.4677734,5.5-5.5,5.5	c-1.3366699,0-2.5626831-0.4802856-3.5168457-1.276123l3.2730713-3.2730713C9.8362427,10.9714355,9.9135742,11,10,11	c0.5523071,0,1-0.4477539,1-1c0-0.5523071-0.4476929-1-1-1s-1,0.4476929-1,1c0,0.0864868,0.0285645,0.1637573,0.0491943,0.2437744	l-3.2730103,3.2730103C4.9803467,12.562561,4.5,11.3365479,4.5,10c0-3.0327148,2.4672852-5.5,5.5-5.5	c1.3365479,0,2.562561,0.4803467,3.5167847,1.2761841l-1.430481,1.430481C11.5019531,6.7689209,10.7845459,6.5,10,6.5	c-1.9296875,0-3.5,1.5703125-3.5,3.5h1c0-1.378418,1.121582-2.5,2.5-2.5c1.3789062,0,2.5,1.121582,2.5,2.5	c0,1.3789062-1.1210938,2.5-2.5,2.5v1c1.9296875,0,3.5-1.5703125,3.5-3.5c0-0.7845459-0.2689209-1.5019531-0.706665-2.0863037	l1.430542-1.430542C15.0197144,7.4373169,15.5,8.6633301,15.5,10z"/></svg>