<svg xmlns="http://www.w3.org/2000/svg" xmlns:xlink="http://www.w3.org/1999/xlink" id="Layer_1" x="0" y="0" enable-background="new 0 0 20 20" version="1.1" viewBox="0 0 20 20" xml:space="preserve"><path fill="#231F20" d="M12,10.25c-1.2426453,0-2.25-1.00737-2.25-2.25c0-1.2426453,1.0073547-2.25,2.25-2.25	c0.9664917,0,1.75-0.7835083,1.75-1.75c0-0.966507-0.7835083-1.75-1.75-1.75S10.25,3.033493,10.25,4	c0,1.24263-1.0073547,2.25-2.25,2.25C7.0335083,6.25,6.25,7.033493,6.25,8c0,0.9664917,0.7835083,1.75,1.75,1.75	c1.2426453,0,2.25,1.0073547,2.25,2.25c0,1.24263-1.0073547,2.25-2.25,2.25c-0.9664917,0-1.75,0.783493-1.75,1.75	c0,0.9664917,0.7835083,1.75,1.75,1.75S9.75,16.9664917,9.75,16c0-1.2426453,1.0073547-2.25,2.25-2.25	c0.9664917,0,1.75-0.7835083,1.75-1.75C13.75,11.033493,12.9664917,10.25,12,10.25z"/></svg>